<svg xmlns="http://www.w3.org/2000/svg" enable-background="new 0 0 64 64" viewBox="0 0 64 64" id="clown"><path fill="#f4c19f" d="M53.5,35.11c-0.15,0.05-0.26,0.2-0.28,0.36c-0.2,1.73-0.81,2.96-2,3.46v-4.51
				c-0.5-8.1-1.35-14.28-5.65-12.84c-9.03,3.13-17.96,2.86-26.82,0c-4.28-1.43-5.15,4.75-5.65,12.84v4.51
				c-1.18-0.5-1.79-1.73-2-3.46c-0.01-0.16-0.13-0.32-0.28-0.36c-2.85-0.8-4.18,3.15-3.12,6.81c0.36,1.26,1.17,2.39,2.36,2.96
				c0.6,0.28,1.29,0.44,2.06,0.39c0.15,2.06,0.5,4,1.13,5.78c1.36,3.93,3.95,7.11,8.31,9.31c0.73,0.36,1.45,0.75,2.15,1.16
				c5.91,3.39,11.89,3.25,17.96-0.64c4.95-2.19,7.87-5.5,9.36-9.66c0.66-1.83,1.05-3.83,1.2-5.97c0.77,0.06,1.45-0.1,2.05-0.39
				c1.18-0.57,2-1.7,2.37-2.96C57.69,38.27,56.34,34.32,53.5,35.11z M41.72,59c-6.24,5.66-13.69,5.26-19.43,0
				c-6.6-4.52-8.53-12.88-8.55-22.77c0.32-7.4,0.76-14.57,5.17-13.38c4.26,1.04,8.86,2.22,12.9,2.31h0.39
				c4.05-0.09,8.65-1.28,12.9-2.31c4.42-1.2,4.85,5.98,5.18,13.38C50.25,46.12,48.34,54.48,41.72,59z"></path><path fill="#f5f5f5" d="M45.11,22.85c-4.25,1.04-8.85,2.22-12.9,2.31h-0.39c-4.04-0.09-8.64-1.28-12.9-2.31
		c-4.41-1.2-4.85,5.98-5.17,13.38c0.02,9.89,1.95,18.25,8.55,22.77c5.74,5.26,13.19,5.66,19.43,0c6.62-4.52,8.53-12.88,8.56-22.77
		C49.96,28.83,49.52,21.65,45.11,22.85z M18.24,29.47c1.46-3.11,4.71-3.93,6.81-1.18c1.64,1.94,2.46,4.96,2.27,8.44
		c-0.18,2.66-6.21,3.07-9.06,1.78C16,37.7,16.63,32.39,18.24,29.47z M44.01,49c-0.13,0.23-0.33,0.52-0.65,0.92
		c-1.41,1.74-2.69,3.6-3.71,5.59c-0.92,1.8-1.84,3.52-2.9,4.25c-2.94,2.28-6.7,2.24-9.46,0c-1.06-0.73-1.98-2.45-2.9-4.25
		c-1.02-1.99-2.3-3.85-3.71-5.59c-0.33-0.4-0.54-0.69-0.66-0.92c-0.18-0.32-0.05-0.73,0.3-0.87c1.45-0.6,4,0.11,6.71,0.95
		c-1.21-1.26-1.96-2.99-1.96-4.9c0-3.91,3.12-7.07,6.96-7.07c3.85,0,6.96,3.17,6.96,7.07c0,1.9-0.74,3.63-1.95,4.9
		c2.7-0.83,5.25-1.55,6.71-0.95C44.07,48.28,44.19,48.69,44.01,49z M45.78,38.5c-2.87,1.3-8.89,0.89-9.06-1.78
		c-0.2-3.47,0.63-6.5,2.25-8.44c2.11-2.74,5.36-1.92,6.82,1.18C47.41,32.39,48.03,37.7,45.78,38.5z"></path><path fill="#cf424f" d="M43.73,48.14c-1.46-0.6-4.01,0.11-6.71,0.95c-0.43,0.46-0.91,0.84-1.45,1.16h3.36l1.21-0.36
		c1.13-0.33,1.7,0.17,0.73,0.9c-1.61,1.55-2.96,4.13-4.42,6.4c-0.22,0.34-0.51,0.66-0.87,0.89c-0.06,0.05-0.13,0.09-0.19,0.13
		c-2.49,1.38-4.79,1.37-6.91-0.03c-0.03-0.02-0.08-0.06-0.11-0.08c-0.28-0.2-0.52-0.49-0.72-0.79c-1.48-2.29-2.86-4.93-4.5-6.51
		c-0.96-0.73-0.39-1.23,0.73-0.9l1.21,0.36h3.37c-0.54-0.32-1.01-0.71-1.45-1.16c-2.71-0.83-5.26-1.55-6.71-0.95
		c-0.34,0.14-0.48,0.55-0.3,0.87c0.13,0.23,0.33,0.52,0.66,0.92c1.41,1.74,2.69,3.6,3.71,5.59c0.92,1.8,1.84,3.52,2.9,4.25
		c2.77,2.24,6.52,2.28,9.46,0c1.06-0.73,1.98-2.45,2.9-4.25c1.02-1.99,2.3-3.85,3.71-5.59c0.32-0.4,0.52-0.69,0.65-0.92
		C44.19,48.69,44.07,48.28,43.73,48.14z"></path><path fill="#ff5263" d="M32.01,37.12c-3.84,0-6.96,3.17-6.96,7.07c0,1.9,0.75,3.63,1.96,4.9c0.43,0.46,0.91,0.84,1.45,1.16
		c0.28,0.17,0.57,0.33,0.88,0.46c0.82,0.35,1.73,0.55,2.68,0.55c0.97,0,1.9-0.2,2.73-0.57c0.28-0.13,0.57-0.26,0.83-0.43
		c0.54-0.32,1.01-0.71,1.45-1.16c1.21-1.26,1.95-2.99,1.95-4.9C38.97,40.28,35.86,37.12,32.01,37.12z"></path><path fill="#3e4347" d="M25.05,28.28c-2.1-2.74-5.35-1.92-6.81,1.18c-1.62,2.93-2.24,8.23,0.01,9.03
						c2.86,1.3,8.88,0.89,9.06-1.78C27.51,33.25,26.69,30.22,25.05,28.28z M26.68,37.24c-0.05,0.65-1.61,1.35-4.04,1.35
						c-1.3,0-2.57-0.22-3.42-0.58c-0.27-0.09-0.43-0.3-0.56-0.61c-0.57-1.45-0.06-4.55,1.07-6.51c0.67-1.37,1.74-2.17,2.81-2.17
						c0.77,0,1.5,0.41,2.11,1.17C26.14,31.57,26.86,34.24,26.68,37.24z"></path><path fill="#f5f5f5" d="M24.65,29.89c-0.6-0.76-1.33-1.17-2.11-1.17c-1.07,0-2.14,0.81-2.81,2.17c-1.13,1.96-1.64,5.07-1.07,6.51
						c0.13,0.32,0.28,0.52,0.56,0.61c0.84,0.36,2.12,0.58,3.42,0.58c2.44,0,4-0.71,4.04-1.35C26.86,34.24,26.14,31.57,24.65,29.89z
						 M23.05,38.29c-1.45,0-2.62-1.63-2.62-3.64c0-2.02,1.17-3.64,2.62-3.64s2.61,1.63,2.61,3.64
						C25.66,36.66,24.5,38.29,23.05,38.29z"></path><path fill="#0983a5" d="M23.05,31c-1.45,0-2.62,1.63-2.62,3.64c0,2.02,1.17,3.64,2.62,3.64s2.61-1.63,2.61-3.64
						C25.66,32.63,24.5,31,23.05,31z M23.05,35.4c-0.42,0-0.75-0.33-0.75-0.75c0-0.41,0.33-0.75,0.75-0.75
						c0.41,0,0.75,0.34,0.75,0.75C23.8,35.07,23.46,35.4,23.05,35.4z"></path><path fill="#3e4347" d="M23.8 34.65c0 .42-.34.75-.75.75-.42 0-.75-.33-.75-.75 0-.41.33-.75.75-.75C23.46 33.89 23.8 34.24 23.8 34.65zM45.79 29.47c-1.46-3.11-4.71-3.93-6.82-1.18-1.63 1.94-2.46 4.96-2.25 8.44.17 2.66 6.19 3.07 9.06 1.78C48.03 37.7 47.41 32.39 45.79 29.47zM45.37 37.4c-.13.32-.28.52-.56.61-.84.36-2.12.58-3.42.58-2.45 0-4.01-.71-4.05-1.35-.17-3.01.55-5.67 2.03-7.36.61-.76 1.34-1.17 2.11-1.17 1.08 0 2.14.81 2.81 2.17C45.42 32.85 45.94 35.96 45.37 37.4z"></path><path fill="#f5f5f5" d="M44.29,30.89c-0.67-1.37-1.73-2.17-2.81-2.17c-0.76,0-1.49,0.41-2.11,1.17c-1.48,1.69-2.2,4.35-2.03,7.36
						c0.05,0.65,1.61,1.35,4.05,1.35c1.3,0,2.57-0.22,3.42-0.58c0.27-0.09,0.43-0.3,0.56-0.61C45.94,35.96,45.42,32.85,44.29,30.89z
						 M40.98,38.29c-1.45,0-2.62-1.63-2.62-3.64c0-2.02,1.17-3.64,2.62-3.64s2.61,1.63,2.61,3.64
						C43.59,36.66,42.43,38.29,40.98,38.29z"></path><path fill="#0983a5" d="M40.98,31c-1.45,0-2.62,1.63-2.62,3.64c0,2.02,1.17,3.64,2.62,3.64s2.61-1.63,2.61-3.64
						C43.59,32.63,42.43,31,40.98,31z M40.98,35.4c-0.42,0-0.75-0.33-0.75-0.75c0-0.41,0.33-0.75,0.75-0.75
						c0.41,0,0.75,0.34,0.75,0.75C41.73,35.07,41.39,35.4,40.98,35.4z"></path><path fill="#3e4347" d="M41.73,34.65c0,0.42-0.34,0.75-0.75,0.75c-0.42,0-0.75-0.33-0.75-0.75c0-0.41,0.33-0.75,0.75-0.75
					C41.39,33.89,41.73,34.24,41.73,34.65z"></path><path fill="#ff717f" d="M35.59,58.07c-0.06,0.05-0.13,0.09-0.19,0.13c-2.49,1.38-4.79,1.37-6.91-0.03c-0.03-0.02-0.08-0.06-0.11-0.08
		C30.29,56.11,33.38,56.06,35.59,58.07z"></path><path fill="#f5f5f5" d="M26.84,50.71h-1.17c-0.01-0.1-0.02-0.2-0.02-0.31L26.84,50.71z"></path><path fill="#574137" d="M25.67,50.71h-0.02v-0.31C25.65,50.51,25.66,50.61,25.67,50.71z"></path><path fill="#f5f5f5" d="M38.38,50.41c0,0.08,0,0.17-0.02,0.26h-1C37.69,50.59,38.03,50.5,38.38,50.41z"></path><path fill="#574137" d="M38.38,50.41v0.26h-0.02C38.38,50.58,38.38,50.49,38.38,50.41z"></path><path fill="#cf424f" d="M29.33,50.7l-2.48,0.01h-0.01l-1.2-0.31c-0.18-0.06-0.38-0.1-0.56-0.16h3.37
		C28.74,50.42,29.03,50.58,29.33,50.7z"></path><path fill="#cf424f" d="M37.34,50.67c-0.34,0.1-0.69,0.18-1.04,0.24c-0.33,0.08-0.65,0.15-0.98,0.2l-2.12,0.36
		c-0.79,0.15-1.59,0.15-2.38,0l-2.12-0.36c-0.39-0.07-0.77-0.15-1.15-0.24c-0.09-0.01-0.17-0.02-0.25-0.06
		c-0.14-0.02-0.27-0.05-0.41-0.09c-0.02,0-0.03,0-0.05-0.01l2.48-0.01c0.82,0.35,1.73,0.55,2.68,0.55c0.97,0,1.9-0.2,2.73-0.57
		L37.34,50.67z"></path><path fill="#cf424f" d="M38.93,50.25c-0.18,0.06-0.38,0.11-0.56,0.16c-0.34,0.09-0.68,0.18-1.02,0.26h-0.01l-2.6,0.01
		c0.28-0.13,0.57-0.26,0.83-0.43H38.93z"></path><path fill="#f5f5f5" d="M38.38,50.67c0,0.83-0.52,1.57-1.3,1.86c-3.35,1.2-6.7,1.14-10.04,0.07c-0.09-0.03-0.18-0.07-0.26-0.11
		c-0.68-0.32-1.13-1-1.13-1.76h1.21c0.01,0.01,0.02,0.01,0.05,0.01c0.14,0.05,0.27,0.07,0.41,0.09c0.08,0.03,0.16,0.05,0.25,0.06
		c0.38,0.09,0.76,0.17,1.15,0.24l2.12,0.36c0.79,0.15,1.59,0.15,2.38,0l2.12-0.36c0.33-0.06,0.65-0.13,0.98-0.2
		c0.34-0.06,0.69-0.14,1.04-0.24H38.38z"></path><path fill="#574137" d="M40.87,50.78c-1.61,1.55-2.96,4.13-4.42,6.4c-0.22,0.34-0.51,0.66-0.87,0.89c-2.21-2-5.29-1.96-7.22,0.01
		c-0.28-0.2-0.52-0.49-0.72-0.79c-1.48-2.29-2.86-4.93-4.5-6.51c-0.96-0.73-0.39-1.23,0.73-0.9l1.21,0.36
		c0.18,0.06,0.38,0.1,0.56,0.16c0,0.1,0.01,0.2,0.02,0.31c0.1,0.68,0.5,1.43,1.1,1.76c0.08,0.05,0.17,0.08,0.26,0.11
		c3.35,1.07,6.7,1.13,10.04-0.07c0.69-0.25,1.18-1.09,1.28-1.86c0.02-0.09,0.02-0.18,0.02-0.26c0.18-0.05,0.38-0.1,0.56-0.16
		l1.21-0.36C41.27,49.55,41.84,50.05,40.87,50.78z"></path><path fill="none" d="M35.61,58.08c-0.01-0.01-0.01-0.01-0.02-0.01"></path><path fill="#249ac9" d="M20.43,2.45c-2.94,0.23-5.7,2-6.8,4.61C7.91,6.91,3.08,13.61,5.42,19.22c-4.25,2.85-5.67,8.72-2.19,13.31
		c-1.62,4.12-0.49,7.9,3.15,10.38c-0.52,4.57,2.82,7.85,6.35,8.21c-3.95,0.4-8.22-3.09-7.63-8.21c-3.66-2.48-4.78-6.26-3.15-10.38
		c-3.48-4.59-2.06-10.46,2.17-13.31C1.79,13.61,6.62,6.91,12.36,7.06C13.59,4.08,17.05,2.18,20.43,2.45z"></path><path fill="#42ade2" d="M61.74,32.68c1.95,4.01,1,7.44-3.02,10.24c0.46,4.46-2.43,7.32-6.35,8.13c-0.44,0.09-0.89,0.16-1.35,0.19
		c0.66-1.83,1.05-3.83,1.2-5.97c0.77,0.06,1.45-0.1,2.05-0.39c1.18-0.57,2-1.7,2.37-2.96c0.88-3.02,0.11-6.25-1.79-6.82h-0.01
		c-0.4-0.13-0.84-0.13-1.33,0.01c-0.15,0.05-0.26,0.2-0.28,0.36c-0.11,0.95-0.34,1.74-0.73,2.35c-0.31,0.51-0.73,0.89-1.28,1.12
		v-4.51c-0.42-6.84-1.1-12.31-3.88-12.98c-0.51-0.13-1.09-0.09-1.76,0.14c-4.2,1.46-8.38,2.17-12.54,2.23
		c-4.78,0.09-9.54-0.71-14.28-2.23c-0.17-0.06-0.33-0.1-0.48-0.14c0,0,0,0-0.01,0c-3.86-0.81-4.68,5.2-5.16,12.98v4.51
		c-1.18-0.5-1.79-1.73-2-3.46c-0.01-0.16-0.13-0.32-0.28-0.36c-0.02,0-0.03-0.01-0.06-0.01c0,0,0,0-0.01,0
		c-2.8-0.72-4.1,3.2-3.05,6.82c0.36,1.26,1.17,2.39,2.36,2.96c0.6,0.28,1.29,0.44,2.06,0.39c0.15,2.06,0.5,4,1.13,5.78
		c-0.16,0.03-0.32,0.06-0.48,0.07h-0.01c-3.53-0.36-6.88-3.64-6.35-8.21c-3.64-2.48-4.77-6.26-3.15-10.38
		c-3.48-4.59-2.06-10.46,2.19-13.31C3.08,13.61,7.91,6.91,13.63,7.06c1.09-2.61,3.86-4.38,6.8-4.61c1.26,0.09,2.52,0.49,3.63,1.24
		c0.14-0.17,0.27-0.34,0.42-0.5C26.48,1,29.56-0.1,32.6,0.07c2.7,0.15,5.35,1.32,7.17,3.62c0.28-0.17,0.58-0.33,0.88-0.48
		c1.35-0.64,2.79-0.89,4.17-0.77c2.66,0.2,5.16,1.79,6.59,4.61c5.77,0.26,10.4,5.74,8.4,12.25C63.93,22.56,65.79,27.48,61.74,32.68z
		"></path><path fill="none" d="M51.01 51.24c-.03.01-.06.01-.09.01M13.31 51.04c-.02 0-.06.01-.08.01"></path></svg>