<svg xmlns="http://www.w3.org/2000/svg" enable-background="new 0 0 36 36" viewBox="0 0 36 36" id="stripe-s"><path fill="#EFEFEF" d="M8.377,31.833c6.917,0,11.667,3.583,15,3.583S33.71,33.5,33.71,18.167S24.293,0.583,20.627,0.583C3.46,0.583-3.873,31.833,8.377,31.833z"></path><path fill="#A4AFC1" d="M27.906,17.965c-0.827,0-1.5-0.673-1.5-1.5s0.673-1.5,1.5-1.5s1.5,0.673,1.5,1.5S28.733,17.965,27.906,17.965z M27.906,15.965c-0.276,0-0.5,0.225-0.5,0.5s0.224,0.5,0.5,0.5s0.5-0.225,0.5-0.5S28.182,15.965,27.906,15.965z"></path><rect width="1" height="2" x="6.375" y="3.304" fill="#A4AFC1"></rect><rect width="1" height="2" x="6.375" y="9.054" fill="#A4AFC1"></rect><rect width="2" height="1" x="2.875" y="6.554" fill="#A4AFC1"></rect><rect width="2" height="1" x="8.625" y="6.554" fill="#A4AFC1"></rect><path fill="#2FDF84" d="M17.185,24.18c-2.02,0-4.379-0.857-6.428-1.999v5.645c2.267,1.002,4.319,1.424,6.425,1.424c5.073,0,8.569-2.241,8.569-6.749c0-7.478-9.326-6.138-9.326-8.959l-0.001-0.001c0-0.98,0.796-1.357,2.071-1.357c1.856,0,4.384,0.584,6.241,1.612V7.896c-2.023-0.83-4.214-1.146-6.237-1.146c-4.949,0-8.248,2.654-8.248,7.092c0,6.938,9.275,5.813,9.275,8.805C19.525,23.807,18.546,24.18,17.185,24.18z"></path><g><path fill="#00B871" d="M19.525,22.647c0,0.835-0.512,1.258-1.303,1.432c0.413,0.061,0.821,0.102,1.213,0.102c1.361,0,2.34-0.373,2.34-1.533c0-2.992-9.275-1.867-9.275-8.805c0-4.11,2.832-6.685,7.181-7.044c-0.397-0.025-0.795-0.048-1.183-0.048c-4.949,0-8.248,2.654-8.248,7.092C10.25,20.78,19.525,19.655,19.525,22.647z"></path><path fill="#00B871" d="M24.735 13.797v-.945c-1.373-.433-2.816-.668-3.991-.668-.344 0-.65.031-.919.09C21.448 12.471 23.292 12.998 24.735 13.797zM13.007 27.826v-4.574c-.769-.306-1.529-.67-2.25-1.072v5.646c2.267 1.002 4.319 1.424 6.425 1.424.424 0 .832-.021 1.232-.053C16.657 29.079 14.907 28.666 13.007 27.826z"></path></g><g><path d="M17.181,30c-2.293,0-4.431-0.473-6.728-1.488c-0.271-0.119-0.447-0.389-0.447-0.686v-5.646c0-0.266,0.141-0.512,0.37-0.646c0.229-0.136,0.513-0.139,0.745-0.009c2.202,1.229,4.355,1.904,6.063,1.904c1.59,0,1.59-0.529,1.59-0.783c0-0.663-1.324-1.153-2.727-1.672C13.285,19.952,9.5,18.552,9.5,13.842C9.5,9.078,13.032,6,18.499,6c2.351,0,4.606,0.416,6.522,1.203c0.281,0.115,0.465,0.39,0.465,0.693v5.9c0,0.266-0.141,0.512-0.369,0.646c-0.229,0.133-0.512,0.138-0.744,0.01c-1.641-0.908-4.003-1.519-5.878-1.519c-1.321,0-1.321,0.41-1.321,0.607c0,0.541,1.282,0.988,2.521,1.421c2.71,0.945,6.806,2.373,6.806,7.538C26.5,27.196,23.016,30,17.181,30z M11.507,27.331c1.931,0.796,3.746,1.169,5.674,1.169c2.351,0,7.819-0.585,7.819-5.999c0-4.1-3.081-5.174-5.8-6.122c-1.813-0.632-3.526-1.229-3.526-2.836c-0.001-0.74,0.316-1.324,0.918-1.688c0.466-0.282,1.088-0.42,1.902-0.42c1.712,0,3.786,0.453,5.492,1.17V8.41c-1.634-0.597-3.519-0.91-5.487-0.91C13.873,7.5,11,9.93,11,13.842c0,3.665,2.958,4.76,5.569,5.726c1.906,0.705,3.706,1.371,3.706,3.079c0,0.853-0.401,2.283-3.09,2.283c-2.058,0-4.178-0.795-5.678-1.516V27.331z"></path></g></svg>